<?xml version="1.0" encoding="UTF-8" standalone="no"?><!DOCTYPE svg PUBLIC "-//W3C//DTD SVG 1.1//EN" "http://www.w3.org/Graphics/SVG/1.1/DTD/svg11.dtd"><svg width="100%" height="100%" viewBox="0 0 906 906" version="1.1" xmlns="http://www.w3.org/2000/svg" xmlns:xlink="http://www.w3.org/1999/xlink" xml:space="preserve" xmlns:serif="http://www.serif.com/" style="fill-rule:evenodd;clip-rule:evenodd;stroke-linejoin:round;stroke-miterlimit:2;"><rect id="Artboard3" x="0" y="0" width="905.41" height="905.41" style="fill:none;"/><g><g><path d="M380.414,293.869c-0.049,0 -0.07,-0.044 -0.07,-0.028c-17.747,-7.179 -36.089,-13.194 -54.93,-17.95c35.761,-25.757 79.622,-40.956 127.003,-41.018l0.288,-0c47.211,0 90.94,15.03 126.657,40.563c0,0.013 -0.211,0.062 -0.211,0.054c-18.775,4.834 -37.059,10.899 -54.76,18.105c-21.878,-9.863 -46.146,-15.353 -71.685,-15.353l-0.132,-0c-25.727,0.019 -50.16,5.609 -72.159,15.627Z" style="fill:#9bcc5b;"/><path d="M272.118,266.022c-16.914,-2.024 -34.133,-3.053 -51.596,-3.028c-1.754,0.003 -3.505,0.016 -5.254,0.039c55.388,-70.009 141.056,-114.985 237.151,-115.074l0.286,-0c95.686,0 181.058,44.507 236.527,113.931l-0.287,-0.001c-0.843,-0.004 -1.687,-0.005 -2.531,-0.004c-18.332,0.026 -36.398,1.197 -54.131,3.444c-46.668,-44.668 -109.942,-72.123 -179.578,-72.123l-0.288,0c-69.898,0.076 -133.368,27.814 -180.044,72.847l-0.256,-0.031Z" style="fill:#9bcc5b;"/><path d="M107.253,278.422c63.977,-125.952 194.72,-212.455 345.465,-212.676l0.016,-0c150.24,-0.214 280.611,85.346 344.804,210.436c-0.014,-0.028 -0.017,-0.024 -0.019,-0.005c-17.758,-4.696 -35.964,-8.287 -54.54,-10.696c-61.18,-95.695 -168.371,-159.19 -290.275,-159.19l-0.286,0c-122.499,0.1 -230.11,64.316 -291.058,160.874c0.015,0 -0.303,0.055 -0.314,0.044c-18.33,2.594 -36.288,6.358 -53.794,11.213Z" style="fill:#9bcc5b;"/></g><g><path d="M804.816,291.188c2.286,4.973 4.469,10.003 6.547,15.087c2.715,6.642 5.25,13.376 7.6,20.197c1.728,5.014 3.355,10.075 4.879,15.18c-16.285,-6.347 -33.119,-11.594 -50.41,-15.65c-15.971,-3.747 -32.333,-6.477 -49.013,-8.12c-12.475,-1.229 -25.128,-1.849 -37.928,-1.831c-4.403,0.006 -8.789,0.088 -13.156,0.244c-16.047,0.573 -31.841,2.15 -47.322,4.668c-16.198,2.635 -32.052,6.301 -47.494,10.928c-15.086,4.521 -29.777,9.959 -44.009,16.25c-15.901,7.029 -31.229,15.121 -45.893,24.188c-12.309,7.611 -24.151,15.907 -35.471,24.836c-11.01,8.684 -21.527,17.966 -31.501,27.797c-9.939,9.796 -19.34,20.137 -28.153,30.975c-8.607,10.584 -16.654,21.641 -24.096,33.125c-7.597,11.724 -14.562,23.894 -20.848,36.461c-1.064,2.128 -2.109,4.267 -3.134,6.417c-5.119,10.738 -9.747,21.755 -13.853,33.02c-1.267,3.475 -2.484,6.973 -3.65,10.494c-3.808,11.493 -7.079,23.228 -9.783,35.177c-0.916,4.048 -1.767,8.121 -2.552,12.218c-2.953,15.414 -4.969,31.158 -5.985,47.17c-0.241,3.798 -0.426,7.61 -0.553,11.437c-0.142,4.25 -0.213,8.517 -0.213,12.801c0,3.975 0.062,7.937 0.184,11.882c0.116,3.743 0.286,7.471 0.511,11.186c1.011,16.746 3.116,33.198 6.245,49.285c0.676,3.474 1.399,6.931 2.169,10.371c3.35,14.957 7.589,29.578 12.658,43.806c-5.057,-1.674 -10.068,-3.449 -15.031,-5.323c-6.747,-2.548 -13.404,-5.28 -19.965,-8.189c-2.753,-1.22 -5.488,-2.472 -8.207,-3.754c-2.239,-1.056 -4.466,-2.133 -6.681,-3.231c-2.892,-11.077 -5.342,-22.333 -7.33,-33.748c-1.384,-7.95 -2.544,-15.977 -3.473,-24.075c-1.479,-12.891 -2.372,-25.96 -2.652,-39.18c-0.064,-3.002 -0.096,-6.012 -0.096,-9.03c0,-1.488 0.008,-2.974 0.023,-4.458c0.019,-1.867 0.051,-3.731 0.095,-5.592c0.362,-15.376 1.554,-30.55 3.533,-45.479c0.79,-5.961 1.705,-11.882 2.743,-17.761c1.987,-11.259 4.425,-22.363 7.292,-33.295c0.583,-2.222 1.183,-4.436 1.802,-6.644c3.822,-13.647 8.317,-27.014 13.448,-40.064c0.746,-1.898 1.506,-3.789 2.278,-5.673c4.472,-10.902 9.389,-21.576 14.73,-31.999c3.232,-6.308 6.62,-12.524 10.157,-18.643c3.428,-5.929 6.996,-11.766 10.7,-17.508c7.485,-11.602 15.527,-22.812 24.087,-33.594c8.849,-11.145 18.251,-21.832 28.165,-32.018c9.992,-10.266 20.504,-20.023 31.493,-29.229c11.333,-9.495 23.174,-18.403 35.476,-26.678c11.192,-7.529 22.766,-14.533 34.686,-20.978c16.481,-8.911 33.624,-16.752 51.334,-23.429l0.08,-0.03c17.013,-6.41 34.549,-11.746 52.526,-15.925l0.225,-0.052c16.678,-3.868 33.736,-6.739 51.106,-8.55l0.262,-0.027c14.149,-1.466 28.506,-2.227 43.034,-2.247c4.044,-0.006 8.075,0.046 12.091,0.154l0.291,0.008c17.707,0.489 35.141,2.079 52.234,4.703l0.313,0.048c18.232,2.813 36.076,6.803 53.454,11.89Z" style="fill:#172614;"/><path d="M706.675,399.395c-6.68,-0.453 -13.42,-0.683 -20.213,-0.683c-7.574,0 -15.082,0.286 -22.513,0.848c-14.659,1.108 -29.02,3.29 -43.004,6.467c-13.682,3.108 -27.004,7.168 -39.892,12.107c-11.42,4.376 -22.5,9.442 -33.188,15.147c-12.386,6.612 -24.247,14.081 -35.502,22.329c-11.121,8.15 -21.651,17.059 -31.513,26.652c-10.111,9.835 -19.521,20.389 -28.145,31.578c-8.901,11.547 -16.965,23.771 -24.103,36.581c-5.397,9.686 -10.265,19.707 -14.563,30.024c-2.233,5.359 -4.312,10.798 -6.232,16.311c-2.647,7.602 -4.992,15.345 -7.02,23.215c-3.597,13.96 -6.197,28.32 -7.719,42.997c-1.047,10.099 -1.584,20.349 -1.584,30.722c0,4.015 0.08,8.012 0.24,11.989c0.577,14.397 2.187,28.531 4.76,42.327c2.724,14.612 6.528,28.847 11.324,42.619c0.164,0.471 0.329,0.941 0.495,1.411c5.529,15.619 12.338,30.636 20.299,44.924c0.504,0.904 1.012,1.806 1.526,2.704c-1.089,-0.061 -2.177,-0.127 -3.263,-0.197c-15.824,-1.02 -31.389,-2.993 -46.64,-5.862l-0.568,-1.247c-6.712,-14.812 -12.382,-30.194 -16.917,-46.053c-0.338,-1.181 -0.669,-2.364 -0.994,-3.551c-4.139,-15.103 -7.251,-30.628 -9.257,-46.496c-1.763,-13.943 -2.671,-28.151 -2.671,-42.569c0,-0.649 0.002,-1.297 0.006,-1.945c0.086,-15.103 1.168,-29.971 3.184,-44.543c2.103,-15.195 5.221,-30.067 9.284,-44.545c0.148,-0.528 0.298,-1.056 0.448,-1.583c3.805,-13.306 8.409,-26.277 13.757,-38.856c1.026,-2.414 2.08,-4.813 3.16,-7.198c6.1,-13.462 13.061,-26.452 20.811,-38.901c7.342,-11.792 15.392,-23.098 24.092,-33.858c8.746,-10.817 18.148,-21.083 28.145,-30.735c9.936,-9.594 20.461,-18.583 31.514,-26.907c11.3,-8.51 23.153,-16.326 35.494,-23.383c14.125,-8.077 28.889,-15.16 44.198,-21.153c13.226,-5.178 26.858,-9.543 40.836,-13.034c14.51,-3.624 29.391,-6.305 44.574,-7.974c12.197,-1.341 24.589,-2.03 37.141,-2.03c2.495,0 4.985,0.027 7.467,0.081c16.233,0.354 32.184,1.859 47.776,4.438c15.764,2.607 31.16,6.311 46.106,11.03c16.371,5.169 32.204,11.557 47.391,19.057c2.586,16.367 4.144,33.076 4.606,50.058c-14.1,-8.605 -28.978,-16.06 -44.502,-22.234c-14.021,-5.576 -28.569,-10.108 -43.547,-13.498c-14.646,-3.315 -29.704,-5.539 -45.084,-6.582Z" style="fill:#172614;"/><path d="M525.297,833.361c-15.465,2.962 -31.255,5.003 -47.311,6.064c-0.475,-0.677 -0.947,-1.357 -1.416,-2.04c-9.154,-13.322 -17.072,-27.559 -23.587,-42.544c-0.182,-0.419 -0.363,-0.838 -0.543,-1.258c-5.587,-13.043 -10.114,-26.647 -13.472,-40.702c-3.161,-13.23 -5.286,-26.861 -6.284,-40.801c-0.435,-6.073 -0.656,-12.206 -0.656,-18.389c0,-7.883 0.36,-15.683 1.063,-23.384c1.344,-14.701 3.941,-29.043 7.685,-42.915c3.115,-11.543 7.024,-22.762 11.664,-33.594c1.112,-2.596 2.266,-5.17 3.461,-7.721c5.916,-12.627 12.84,-24.688 20.669,-36.081c8.392,-12.213 17.823,-23.657 28.166,-34.205c9.736,-9.929 20.278,-19.063 31.522,-27.296c11.185,-8.191 23.064,-15.489 35.531,-21.791c4.49,-2.269 9.055,-4.409 13.693,-6.415c13.36,-5.779 27.312,-10.443 41.74,-13.877c13.912,-3.311 28.265,-5.476 42.955,-6.392c5.298,-0.33 10.64,-0.498 16.021,-0.498c8.69,0 17.278,0.437 25.745,1.29c14.769,1.488 29.166,4.243 43.081,8.154c14.349,4.033 28.185,9.295 41.388,15.665c14.762,7.123 28.732,15.63 41.742,25.355c-1.565,16.236 -4.134,32.182 -7.644,47.775c-11.776,-10.905 -24.789,-20.495 -38.802,-28.533c-12.419,-7.124 -25.625,-13.03 -39.454,-17.555c-13.366,-4.373 -27.314,-7.456 -41.696,-9.101c-7.994,-0.914 -16.123,-1.384 -24.361,-1.384c-5.906,0 -11.755,0.241 -17.54,0.715c-15.671,1.283 -30.862,4.269 -45.389,8.773c-10.594,3.285 -20.835,7.376 -30.65,12.203c-7.847,3.859 -15.422,8.188 -22.689,12.951c-4.4,2.884 -8.686,5.926 -12.851,9.119c-11.482,8.803 -22.042,18.75 -31.508,29.671c-4.86,5.607 -9.431,11.47 -13.691,17.567c-5.334,7.635 -10.18,15.636 -14.491,23.957c-4.749,9.166 -8.85,18.721 -12.243,28.604c-4.958,14.445 -8.403,29.59 -10.143,45.247c-0.865,7.78 -1.309,15.686 -1.309,23.695c0,6.132 0.26,12.204 0.77,18.205c1.165,13.702 3.632,27.035 7.277,39.875c3.911,13.775 9.178,26.982 15.647,39.467l0.336,0.645c7.692,14.722 17.059,28.433 27.846,40.879l-0.274,0.6Z" style="fill:#172614;"/><path d="M687.251,564.22c-0.301,-0.002 -0.602,-0.003 -0.903,-0.003c-19.148,0 -37.33,4.165 -53.689,11.639c-3.296,1.506 -6.518,3.146 -9.66,4.913c-13.552,7.625 -25.596,17.618 -35.569,29.418c-6.805,8.051 -12.645,16.942 -17.342,26.495c-8.077,16.426 -12.775,34.809 -13.183,54.239c-0.019,0.921 -0.029,1.844 -0.029,2.769c0,13.479 2.064,26.479 5.893,38.702c4.243,13.543 10.652,26.131 18.821,37.358c1.798,2.47 3.68,4.875 5.644,7.209c8.627,10.256 18.816,19.156 30.198,26.332c-13.867,6.556 -28.184,12.313 -42.891,17.213c-0.747,0.249 -1.495,0.496 -2.244,0.74c-11.368,-10.173 -21.371,-21.843 -29.696,-34.697c-0.671,-1.035 -1.33,-2.078 -1.979,-3.129c-7.379,-11.951 -13.33,-24.876 -17.612,-38.536c-3.981,-12.699 -6.521,-26.032 -7.428,-39.809c-0.248,-3.763 -0.373,-7.558 -0.373,-11.383c0,-11.178 1.074,-22.108 3.124,-32.69c3.98,-20.544 11.64,-39.783 22.265,-57.001c0.656,-1.063 1.323,-2.119 2.002,-3.166c8.76,-13.525 19.376,-25.738 31.487,-36.277c8.286,-7.211 17.273,-13.639 26.842,-19.167c2.849,-1.646 5.75,-3.212 8.699,-4.695c15.129,-7.608 31.538,-13.037 48.815,-15.876c9.082,-1.492 18.404,-2.268 27.905,-2.268c5.475,0 10.891,0.258 16.236,0.762c14.323,1.35 28.135,4.469 41.215,9.136c13.465,4.804 26.153,11.247 37.825,19.09c13.301,8.937 25.281,19.691 35.584,31.905c-5.511,15.326 -11.961,30.207 -19.28,44.573c-8.205,-13.9 -18.933,-26.137 -31.552,-36.079c-10.921,-8.604 -23.259,-15.489 -36.603,-20.246c-13.309,-4.743 -27.618,-7.369 -42.523,-7.471Z" style="fill:#172614;"/><path d="M617.51,752.693c-9.032,-10.525 -15.694,-23.142 -19.154,-37.02c-0.851,-3.412 -1.509,-6.901 -1.96,-10.454c-0.48,-3.776 -0.727,-7.624 -0.727,-11.529c0,-3.98 0.257,-7.901 0.755,-11.746c0.662,-5.111 1.751,-10.09 3.229,-14.898c5.707,-18.568 17.222,-34.604 32.419,-45.984c8.909,-6.671 19.083,-11.742 30.095,-14.786c7.7,-2.128 15.809,-3.266 24.182,-3.266c8.795,0 17.299,1.255 25.343,3.595c13.698,3.985 26.062,11.118 36.255,20.561c12.098,11.209 21.137,25.672 25.719,41.993c-30.036,44.44 -69.037,82.341 -114.394,111.093c-9.973,-3.121 -19.208,-7.919 -27.374,-14.064c-5.271,-3.967 -10.097,-8.495 -14.388,-13.495Zm20.637,-50.077c1.986,10.776 7.501,20.322 15.301,27.392c8.7,7.887 20.303,11.468 32.9,12.695c14.49,1.412 27.04,-3.25 35.833,-11.827c9.173,-8.949 14.256,-22.161 13.181,-37.187c-0.855,-11.953 -4.31,-22.968 -11.462,-31.487c-8.994,-10.712 -22.483,-17.527 -37.551,-17.527c-0.628,0 -1.254,0.012 -1.876,0.035c-23.123,0.872 -42.168,17.794 -46.304,39.937c-0.324,1.734 -0.556,3.5 -0.692,5.293c-0.094,1.237 -0.141,2.487 -0.141,3.749c0,3.048 0.279,6.031 0.812,8.926Z" style="fill:#172614;"/><g><path d="M525.571,832.76l0.408,0.469l-0.682,0.131l0.274,-0.6Z" style="fill:#172614;"/></g></g><g><path d="M418.126,324.416c8.063,4.354 15.967,8.964 23.701,13.82c-12.302,8.496 -24.144,17.613 -35.48,27.305c-11.389,-6.512 -23.151,-12.446 -35.244,-17.765c-14.284,-6.282 -29.032,-11.703 -44.176,-16.198c-15.577,-4.623 -31.574,-8.267 -47.92,-10.859c-15.53,-2.463 -31.374,-3.977 -47.472,-4.481c-4.169,-0.131 -8.355,-0.193 -12.557,-0.187c-13.047,0.019 -25.94,0.7 -38.648,2.012c-16.709,1.725 -33.098,4.542 -49.094,8.376c-16.961,4.066 -33.48,9.276 -49.47,15.545c5.233,-17.403 11.656,-34.294 19.176,-50.577l0.019,-0.006c17.126,-5.043 34.704,-9.022 52.659,-11.86l0.314,-0.05c17.128,-2.694 34.598,-4.35 52.343,-4.902l0.292,-0.009c4.102,-0.125 8.218,-0.19 12.348,-0.196c14.492,-0.021 28.814,0.696 42.93,2.114l0.263,0.026c17.433,1.762 34.55,4.595 51.287,8.431l0.225,0.052c18.093,4.158 35.739,9.488 52.854,15.907l0.079,0.03c17.796,6.679 35.018,14.534 51.57,23.472Z" style="fill:#4b6232;"/><path d="M109.511,419.711c-15.31,6.128 -29.988,13.502 -43.909,21.997c0.514,-17.008 2.126,-33.743 4.769,-50.137c14.946,-7.371 30.517,-13.665 46.611,-18.781c14.949,-4.752 30.35,-8.488 46.121,-11.125c15.597,-2.608 31.556,-4.143 47.798,-4.525c2.675,-0.063 5.358,-0.095 8.047,-0.095c12.364,0 24.574,0.668 36.595,1.97c15.292,1.656 30.279,4.338 44.89,7.976c13.984,3.482 27.624,7.839 40.857,13.01c11.51,4.497 22.713,9.61 33.567,15.298c-9.912,10.347 -19.316,21.184 -28.171,32.471c-7.359,-3.544 -14.886,-6.792 -22.568,-9.728c-12.892,-4.927 -26.217,-8.976 -39.901,-12.072c-14.086,-3.187 -28.553,-5.364 -43.32,-6.453c-7.247,-0.534 -14.566,-0.806 -21.948,-0.806c-6.991,0 -13.926,0.244 -20.797,0.723c-15.384,1.074 -30.445,3.329 -45.091,6.676c-14.981,3.424 -29.53,7.989 -43.549,13.6Z" style="fill:#4b6232;"/><path d="M113.135,509.248c-13.919,7.988 -26.849,17.506 -38.562,28.324c-3.461,-15.619 -5.977,-31.592 -7.484,-47.858c12.894,-9.603 26.729,-18.012 41.339,-25.065c13.203,-6.373 27.039,-11.638 41.387,-15.673c13.914,-3.913 28.31,-6.671 43.077,-8.162c8.481,-0.856 17.085,-1.295 25.791,-1.295c5.365,0 10.692,0.167 15.976,0.495c14.798,0.92 29.255,3.108 43.263,6.457c14.432,3.451 28.387,8.134 41.749,13.932c0.98,0.425 1.957,0.856 2.93,1.294c-0.852,1.331 -1.696,2.666 -2.534,4.006c-6.555,10.492 -12.673,21.285 -18.328,32.352c-6.457,-2.748 -13.077,-5.185 -19.842,-7.293c-14.627,-4.558 -29.931,-7.576 -45.72,-8.865c-5.769,-0.471 -11.604,-0.711 -17.494,-0.711c-8.253,0 -16.397,0.471 -24.406,1.389c-14.381,1.647 -28.327,4.733 -41.691,9.108c-13.828,4.528 -27.033,10.437 -39.452,17.564Z" style="fill:#4b6232;"/><path d="M138.551,592.138c-12.6,9.978 -23.302,22.248 -31.474,36.18c-7.313,-14.408 -13.75,-29.334 -19.241,-44.71c10.26,-12.194 22.19,-22.938 35.437,-31.877c11.66,-7.869 24.339,-14.339 37.797,-19.17c13.069,-4.692 26.873,-7.837 41.189,-9.216c5.455,-0.525 10.984,-0.794 16.576,-0.794c9.372,0 18.57,0.755 27.535,2.208c13.365,2.165 26.214,5.881 38.355,10.956c-5.03,12.731 -9.473,25.756 -13.295,39.043l-0.154,0.536c-16.034,-7.119 -33.779,-11.076 -52.44,-11.076c-0.417,0 -0.834,0.002 -1.251,0.006c-14.891,0.141 -29.184,2.802 -42.474,7.575c-13.334,4.789 -25.657,11.706 -36.559,20.34Z" style="fill:#4b6232;"/><path d="M256.426,733.571c1.231,13.613 3.095,27.043 5.562,40.262c-5.133,2.772 -10.561,5.065 -16.225,6.819c-45.501,-28.774 -84.589,-66.781 -114.626,-111.386c4.56,-16.386 13.594,-30.916 25.701,-42.19c10.169,-9.47 22.506,-16.641 36.181,-20.685c8.186,-2.42 16.851,-3.72 25.817,-3.72c8.099,0 15.952,1.06 23.428,3.049c7.006,1.864 13.681,4.543 19.917,7.93c-0.857,4.531 -1.643,9.087 -2.356,13.666c-1.736,11.138 -3.046,22.415 -3.913,33.815c-8.795,-10.006 -21.573,-16.427 -35.845,-16.778c-0.409,-0.01 -0.82,-0.015 -1.231,-0.015c-15.246,0 -28.887,6.928 -37.942,17.806c-7.123,8.555 -11.409,19.554 -11.409,31.546c0,27.238 22.114,49.351 49.351,49.351c12.696,0 24.279,-4.804 33.027,-12.693c1.398,-1.261 2.724,-2.6 3.97,-4.011c0.178,2.417 0.376,4.828 0.593,7.234Z" style="fill:#4b6232;"/></g></g></svg>